<svg width="149" height="37" viewBox="0 0 149 37" fill="none" xmlns="http://www.w3.org/2000/svg">
<g clip-path="url(#clip0_140_5028)">
<path d="M23.1175 19.5497C23.1728 21.4948 21.8486 23.2099 19.954 23.6557L12.6018 25.3844L12.3719 16.9519C12.3259 15.1634 13.5399 13.5907 15.278 13.1816L22.8968 11.3882L23.1175 19.5497Z" fill="#2365FA" stroke="#2365FA" stroke-width="0.114988" stroke-miterlimit="10"/>
<path d="M22.8456 9.66428L13.3552 11.899C12.9691 11.991 12.5644 11.9127 12.238 11.6876L4.34808 6.16954C3.36405 5.48005 3.65859 3.94408 4.83103 3.67297L19.9594 0.111888C20.8891 -0.107032 21.8497 0.346728 22.2632 1.20781C22.5038 1.70933 22.6466 2.27012 22.6621 2.86806L22.8461 9.66384L22.8456 9.66428Z" fill="#2365FA" stroke="#2365FA" stroke-width="0.114988" stroke-miterlimit="10"/>
<path d="M11.2542 25.702L4.16876 27.3711C3.18252 27.6024 2.20866 27.4595 1.38473 27.046C0.86242 26.7838 0.530282 26.2517 0.51436 25.6675L0.0583893 8.84567C0.0168167 7.37869 1.66291 6.49593 2.86321 7.33313L10.1742 12.4461C10.6386 12.7725 10.919 13.2966 10.9327 13.8622L11.2547 25.702H11.2542Z" fill="#2365FA" stroke="#2365FA" stroke-width="0.114988" stroke-miterlimit="10"/>
<path d="M29.0947 33.6384L15.2405 36.8961C14.4815 37.0747 13.6956 36.728 13.3157 36.0469C13.0322 35.5388 12.8629 34.9528 12.8456 34.3186L12.6523 27.2698L21.3379 25.2239C21.8439 25.1045 22.3816 25.2102 22.8093 25.5092L29.7294 30.351C31.0261 31.2568 30.64 33.2753 29.0947 33.6388V33.6384Z" fill="#2365FA" stroke="#2365FA" stroke-width="0.114988" stroke-miterlimit="10"/>
<path d="M11.4936 34.4844C11.5351 35.9465 9.88905 36.8342 8.68875 35.9925L1.37817 30.8795C1.37817 30.8795 1.37552 30.8778 1.37419 30.8769C1.14908 30.7155 1.12609 30.3851 1.3251 30.1927C1.548 29.9769 1.83503 29.8137 2.17822 29.735L11.3052 27.5878L11.4936 34.4849V34.4844Z" fill="#2365FA" stroke="#2365FA" stroke-width="0.114988" stroke-miterlimit="10"/>
<path d="M33.7616 6.63215C33.9535 6.7666 33.8987 7.06778 33.6705 7.11997C33.6687 7.11997 33.667 7.12085 33.6652 7.12129L24.2207 9.34233L24.0367 2.59696C24.0044 1.42895 25.3104 0.725757 26.2666 1.39224L33.7616 6.63215Z" fill="#2365FA" stroke="#2365FA" stroke-width="0.114988" stroke-miterlimit="10"/>
<path d="M35.5138 29.6793C35.5461 30.8473 34.2357 31.5505 33.279 30.8795L25.2281 25.2469C24.8602 24.9895 24.6351 24.5711 24.6213 24.1205L24.2671 11.0667L31.7298 9.31004C32.3105 9.17426 32.8868 9.17957 33.425 9.30208C34.3321 9.50817 34.9826 10.3051 35.0078 11.2352L35.5138 29.6793Z" fill="#2365FA" stroke="#2365FA" stroke-width="0.114988" stroke-miterlimit="10"/>
</g>
<path d="M49.7313 28.932H50.6133C51.0053 28.932 51.2923 28.834 51.4743 28.638C51.6563 28.456 51.7473 28.134 51.7473 27.672V15.576H54.6033V29.184C54.6033 30.752 53.8193 31.536 52.2513 31.536H49.7313V28.932ZM51.4953 13.077C51.4953 12.615 51.6563 12.223 51.9783 11.901C52.3143 11.565 52.7133 11.397 53.1753 11.397C53.6373 11.397 54.0293 11.565 54.3513 11.901C54.6873 12.223 54.8553 12.615 54.8553 13.077C54.8553 13.539 54.6873 13.938 54.3513 14.274C54.0293 14.596 53.6373 14.757 53.1753 14.757C52.7133 14.757 52.3143 14.596 51.9783 14.274C51.6563 13.938 51.4953 13.539 51.4953 13.077ZM61.5284 27.252C60.6604 27.252 59.8904 27.07 59.2184 26.706C58.5604 26.342 58.0424 25.831 57.6644 25.173C57.3004 24.501 57.1184 23.738 57.1184 22.884V15.576H59.9744V21.96C59.9744 22.94 60.1914 23.661 60.6254 24.123C61.0594 24.585 61.6264 24.816 62.3264 24.816C63.1804 24.816 63.8594 24.55 64.3634 24.018C64.8814 23.472 65.1404 22.618 65.1404 21.456V15.576H67.9964V27H65.1404V25.236H65.0564C64.7344 25.824 64.2654 26.307 63.6494 26.685C63.0334 27.063 62.3264 27.252 61.5284 27.252ZM74.7159 27.252C73.6659 27.252 72.7209 27.084 71.8809 26.748C71.0549 26.398 70.4039 25.978 69.9279 25.488L71.6919 23.724C72.1119 24.13 72.5879 24.431 73.1199 24.627C73.6659 24.809 74.2259 24.9 74.7999 24.9C75.2619 24.9 75.6539 24.802 75.9759 24.606C76.3119 24.396 76.4799 24.116 76.4799 23.766C76.4799 23.416 76.3259 23.143 76.0179 22.947C75.7239 22.751 75.2899 22.59 74.7159 22.464L73.7919 22.254C72.6439 21.988 71.7689 21.575 71.1669 21.015C70.5649 20.455 70.2639 19.755 70.2639 18.915C70.2639 18.201 70.4739 17.564 70.8939 17.004C71.3139 16.444 71.8809 16.01 72.5949 15.702C73.3089 15.394 74.0999 15.24 74.9679 15.24C75.7519 15.24 76.5149 15.394 77.2569 15.702C77.9989 15.996 78.6079 16.416 79.0839 16.962L77.4039 18.642C77.1099 18.334 76.7529 18.075 76.3329 17.865C75.9269 17.655 75.4719 17.55 74.9679 17.55C74.3939 17.55 73.9389 17.655 73.6029 17.865C73.2809 18.075 73.1199 18.348 73.1199 18.684C73.1199 18.95 73.2529 19.174 73.5189 19.356C73.7989 19.538 74.2819 19.713 74.9679 19.881L75.6819 20.049C78.1179 20.623 79.3359 21.792 79.3359 23.556C79.3359 24.27 79.1259 24.907 78.7059 25.467C78.2999 26.027 77.7399 26.468 77.0259 26.79C76.3259 27.098 75.5559 27.252 74.7159 27.252ZM83.946 27C82.378 27 81.594 26.216 81.594 24.648V17.676H80.586V15.576H81.594V12.636H84.45V15.576H87.39V17.676H84.45V23.136C84.45 23.598 84.541 23.927 84.723 24.123C84.905 24.305 85.192 24.396 85.584 24.396H87.39V27H83.946ZM93.5215 27.252C92.4715 27.252 91.5265 27.084 90.6865 26.748C89.8605 26.398 89.2095 25.978 88.7335 25.488L90.4975 23.724C90.9175 24.13 91.3935 24.431 91.9255 24.627C92.4715 24.809 93.0315 24.9 93.6055 24.9C94.0675 24.9 94.4595 24.802 94.7815 24.606C95.1175 24.396 95.2855 24.116 95.2855 23.766C95.2855 23.416 95.1315 23.143 94.8235 22.947C94.5295 22.751 94.0955 22.59 93.5215 22.464L92.5975 22.254C91.4495 21.988 90.5745 21.575 89.9725 21.015C89.3705 20.455 89.0695 19.755 89.0695 18.915C89.0695 18.201 89.2795 17.564 89.6995 17.004C90.1195 16.444 90.6865 16.01 91.4005 15.702C92.1145 15.394 92.9055 15.24 93.7735 15.24C94.5575 15.24 95.3205 15.394 96.0625 15.702C96.8045 15.996 97.4135 16.416 97.8895 16.962L96.2095 18.642C95.9155 18.334 95.5585 18.075 95.1385 17.865C94.7325 17.655 94.2775 17.55 93.7735 17.55C93.1995 17.55 92.7445 17.655 92.4085 17.865C92.0865 18.075 91.9255 18.348 91.9255 18.684C91.9255 18.95 92.0585 19.174 92.3245 19.356C92.6045 19.538 93.0875 19.713 93.7735 19.881L94.4875 20.049C96.9235 20.623 98.1415 21.792 98.1415 23.556C98.1415 24.27 97.9315 24.907 97.5115 25.467C97.1055 26.027 96.5455 26.468 95.8315 26.79C95.1315 27.098 94.3615 27.252 93.5215 27.252ZM102.752 27C101.184 27 100.4 26.216 100.4 24.648V17.676H99.3917V15.576H100.4V12.636H103.256V15.576H106.196V17.676H103.256V23.136C103.256 23.598 103.347 23.927 103.529 24.123C103.711 24.305 103.998 24.396 104.39 24.396H106.196V27H102.752ZM107.833 17.298C109.205 15.954 110.885 15.282 112.873 15.282C114.441 15.282 115.687 15.681 116.611 16.479C117.535 17.277 117.997 18.453 117.997 20.007V27H115.141V25.32H115.057C114.553 25.964 113.986 26.447 113.356 26.769C112.726 27.091 111.998 27.252 111.172 27.252C110.472 27.252 109.828 27.112 109.24 26.832C108.666 26.538 108.211 26.125 107.875 25.593C107.539 25.061 107.371 24.438 107.371 23.724C107.371 22.646 107.791 21.785 108.631 21.141C109.485 20.483 110.64 20.154 112.096 20.154H115.141V19.86C115.141 19.188 114.903 18.677 114.427 18.327C113.951 17.977 113.328 17.802 112.558 17.802C111.424 17.802 110.423 18.208 109.555 19.02L107.833 17.298ZM110.269 23.598C110.269 23.962 110.416 24.277 110.71 24.543C111.018 24.809 111.487 24.942 112.117 24.942C112.733 24.942 113.265 24.823 113.713 24.585C114.175 24.333 114.525 24.011 114.763 23.619C115.015 23.213 115.141 22.786 115.141 22.338V22.254H112.033C111.389 22.254 110.934 22.387 110.668 22.653C110.402 22.905 110.269 23.22 110.269 23.598ZM120.182 10.62H123.038V19.398H124.13L127.049 15.576H130.409L126.461 20.721L131.039 27H127.595L123.941 22.002H123.038V27H120.182V10.62ZM136.713 27.252C135.621 27.252 134.627 27.007 133.731 26.517C132.835 26.013 132.121 25.306 131.589 24.396C131.071 23.486 130.812 22.443 130.812 21.267C130.812 20.105 131.071 19.069 131.589 18.159C132.107 17.235 132.807 16.521 133.689 16.017C134.571 15.499 135.551 15.24 136.629 15.24C137.763 15.24 138.743 15.492 139.569 15.996C140.395 16.5 141.025 17.207 141.459 18.117C141.893 19.027 142.11 20.077 142.11 21.267L142.068 22.128H133.605C133.661 22.87 133.983 23.479 134.571 23.955C135.159 24.417 135.873 24.648 136.713 24.648C137.343 24.648 137.903 24.571 138.393 24.417C138.897 24.263 139.366 24.004 139.8 23.64L141.48 25.341C140.948 25.929 140.248 26.398 139.38 26.748C138.526 27.084 137.637 27.252 136.713 27.252ZM139.275 19.986C139.219 19.342 138.939 18.824 138.435 18.432C137.945 18.04 137.329 17.844 136.587 17.844C135.789 17.844 135.117 18.033 134.571 18.411C134.039 18.789 133.717 19.314 133.605 19.986H139.275Z" fill="white"/>
<path d="M145.462 27.084C144.972 27.084 144.552 26.916 144.202 26.58C143.866 26.23 143.698 25.81 143.698 25.32C143.698 24.816 143.866 24.396 144.202 24.06C144.552 23.724 144.972 23.556 145.462 23.556C145.966 23.556 146.386 23.724 146.722 24.06C147.058 24.396 147.226 24.816 147.226 25.32C147.226 25.81 147.058 26.23 146.722 26.58C146.386 26.916 145.966 27.084 145.462 27.084Z" fill="#2365FA"/>
<defs>
<clipPath id="clip0_140_5028">
<rect width="35.5715" height="37" fill="white"/>
</clipPath>
</defs>
</svg>
