<svg width="15" height="15" viewBox="0 0 15 15" fill="none" xmlns="http://www.w3.org/2000/svg">
<path d="M6.75293 0.0205078C4.78711 0.231445 3.00586 1.17188 1.75195 2.66602C0.870117 3.71484 0.322266 4.9043 0.0791016 6.29883C0.0234375 6.61816 0.0175781 6.77344 0.0175781 7.5C0.0175781 8.22656 0.0234375 8.38184 0.0791016 8.70117C0.354492 10.2832 1.0166 11.5928 2.10938 12.7266C3.23145 13.8926 4.64648 14.6309 6.29883 14.9209C6.61816 14.9766 6.77344 14.9824 7.5 14.9824C8.41699 14.9824 8.69238 14.9531 9.41309 14.7686C11.9971 14.1006 14.1006 11.9971 14.7686 9.41309C14.9531 8.69238 14.9824 8.41699 14.9824 7.5C14.9824 6.58301 14.9531 6.30762 14.7686 5.58691C14.1006 3.00586 11.9971 0.899414 9.41309 0.231445C8.74805 0.0615234 8.43457 0.0234375 7.61719 0.0146484C7.20703 0.00878906 6.81738 0.0117188 6.75293 0.0205078ZM8.33496 1.30664C10.667 1.62891 12.6475 3.25488 13.4121 5.47852C13.79 6.57422 13.8516 7.78418 13.5879 8.9209C13.0635 11.1885 11.1885 13.0635 8.9209 13.5879C8.00977 13.7988 6.99023 13.7988 6.0791 13.5879C3.81152 13.0635 1.93652 11.1885 1.41211 8.9209C1.20117 8.00977 1.20117 6.99023 1.41211 6.0791C1.92773 3.84961 3.74414 2.00098 5.97363 1.43555C6.7207 1.24805 7.57031 1.20117 8.33496 1.30664Z" fill="white" fill-opacity="0.72"/>
<path d="M10.9129 4.49414C10.7957 4.5498 10.3152 5.01562 8.5252 6.80859L6.28399 9.05273L5.22931 7.99805C4.51446 7.28613 4.13946 6.93164 4.06622 6.89941C3.92559 6.84082 3.68243 6.84375 3.55645 6.90234C3.24591 7.04883 3.11114 7.41797 3.2547 7.73437C3.29864 7.83398 3.6297 8.18262 4.59356 9.14941C5.9295 10.4883 6.03497 10.5762 6.26641 10.5762C6.55645 10.5762 6.42755 10.6904 9.15216 7.97461C10.8983 6.23144 11.7127 5.39648 11.7508 5.31738C11.8475 5.1123 11.8123 4.82519 11.6688 4.65527C11.5691 4.53808 11.3289 4.42383 11.1766 4.42383C11.1121 4.42383 10.9949 4.45605 10.9129 4.49414Z" fill="white" fill-opacity="0.72"/>
</svg>
