<svg width="24" height="25" viewBox="0 0 24 25" fill="none" xmlns="http://www.w3.org/2000/svg">
<circle cx="12" cy="12.5" r="11.5" stroke="#999EC1"/>
<g clip-path="url(#clip0_136_1710)">
<path d="M11.112 13.476C11.112 13.052 11.172 12.712 11.292 12.456C11.42 12.192 11.632 11.932 11.928 11.676C12.232 11.404 12.452 11.2 12.588 11.064C12.732 10.928 12.852 10.776 12.948 10.608C13.052 10.432 13.104 10.244 13.104 10.044C13.104 9.73997 13 9.49597 12.792 9.31197C12.592 9.12797 12.328 9.03597 12 9.03597C11.328 9.03597 10.752 9.37197 10.272 10.044L9.47998 9.25197C9.79998 8.81197 10.176 8.47597 10.608 8.24397C11.048 8.00397 11.492 7.88397 11.94 7.88397C12.66 7.88397 13.232 8.07997 13.656 8.47197C14.088 8.85597 14.304 9.38797 14.304 10.068C14.304 10.428 14.204 10.776 14.004 11.112C13.812 11.44 13.476 11.792 12.996 12.168C12.492 12.56 12.24 12.996 12.24 13.476V13.932H11.112V13.476ZM10.908 15.732C10.908 15.5 10.984 15.308 11.136 15.156C11.296 14.996 11.492 14.916 11.724 14.916C11.956 14.916 12.148 14.996 12.3 15.156C12.46 15.308 12.54 15.5 12.54 15.732C12.54 15.956 12.46 16.148 12.3 16.308C12.14 16.468 11.948 16.548 11.724 16.548C11.5 16.548 11.308 16.468 11.148 16.308C10.988 16.148 10.908 15.956 10.908 15.732Z" fill="#999EC1"/>
</g>
<defs>
<clipPath id="clip0_136_1710">
<rect width="6" height="10" fill="white" transform="translate(9 7.5)"/>
</clipPath>
</defs>
</svg>
